<svg xmlns="http://www.w3.org/2000/svg" xmlns:xlink="http://www.w3.org/1999/xlink" width="539" zoomAndPan="magnify" viewBox="0 0 404.25 187.499995" height="250" preserveAspectRatio="xMidYMid meet" version="1.0"><defs><g/><clipPath id="0afddac1cf"><path d="M 157.714844 0 L 245.210938 0 L 245.210938 94.996094 L 157.714844 94.996094 Z M 157.714844 0 " clip-rule="nonzero"/></clipPath></defs><g clip-path="url(#0afddac1cf)"><path fill="#000000" d="M 228.824219 60.242188 C 226.476562 57.125 223.636719 54.316406 220.589844 51.890625 C 215.574219 47.898438 209.460938 44.664062 202.914062 44.964844 L 202.914062 43.972656 C 210.605469 43.726562 218.410156 45.023438 225.132812 48.925781 C 227.035156 50.03125 228.828125 51.316406 230.429688 52.832031 C 230.90625 53.285156 231.367188 53.753906 231.796875 54.25 C 232.035156 54.523438 232.324219 54.914062 232.046875 54.535156 C 233.183594 56.082031 235.796875 54.578125 234.644531 53.015625 C 230.160156 46.914062 222.015625 43.371094 214.851562 41.902344 C 211.316406 41.179688 207.71875 40.894531 204.117188 40.9375 C 211.519531 38.875 219.285156 38.84375 226.570312 41.578125 C 228.890625 42.445312 231.109375 43.597656 233.164062 44.980469 C 234.128906 45.632812 234.496094 45.867188 235.292969 46.609375 C 236.707031 47.929688 238.839844 45.804688 237.421875 44.480469 C 234.617188 41.855469 230.929688 40.007812 227.375 38.671875 C 220.015625 35.914062 212.039062 35.820312 204.496094 37.71875 C 210.96875 33.941406 218.238281 31.601562 225.816406 32.070312 C 228.089844 32.210938 230.347656 32.617188 232.519531 33.308594 C 233.640625 33.667969 234.007812 33.78125 234.796875 34.199219 C 236.507812 35.105469 238.027344 32.507812 236.316406 31.597656 C 233.160156 29.925781 229.332031 29.277344 225.816406 29.058594 C 217.875 28.566406 210.125 31 203.300781 34.929688 C 209.25 28.101562 218.949219 24.464844 227.925781 24.566406 C 229.863281 24.589844 229.867188 21.578125 227.925781 21.554688 C 219.066406 21.457031 209.410156 24.746094 202.914062 30.964844 L 202.914062 30.867188 C 202.917969 30.863281 202.921875 30.855469 202.929688 30.847656 C 206.601562 25.222656 212.203125 20.527344 217.84375 16.933594 C 219.476562 15.894531 217.96875 13.289062 216.328125 14.332031 C 211.457031 17.433594 206.683594 21.285156 202.9375 25.804688 C 202.945312 25.757812 202.953125 25.707031 202.957031 25.65625 C 203.90625 22.867188 205.46875 20.335938 207.449219 18.15625 C 208.09375 17.441406 208.777344 16.761719 209.5 16.128906 C 209.714844 15.941406 209.933594 15.761719 210.152344 15.582031 C 210.167969 15.566406 210.183594 15.554688 210.195312 15.542969 C 210.203125 15.539062 210.207031 15.535156 210.21875 15.527344 C 211.765625 14.394531 210.265625 11.78125 208.699219 12.929688 C 206.445312 14.574219 204.480469 16.683594 202.914062 19.042969 L 202.914062 10.335938 C 202.914062 9.566406 202.285156 8.941406 201.519531 8.941406 L 201.265625 8.941406 C 200.5 8.941406 199.871094 9.566406 199.871094 10.335938 L 199.871094 18.941406 C 198.316406 16.621094 196.378906 14.550781 194.15625 12.929688 C 192.59375 11.785156 191.085938 14.394531 192.636719 15.527344 C 192.644531 15.53125 192.644531 15.535156 192.648438 15.535156 C 192.652344 15.539062 192.652344 15.539062 192.65625 15.542969 C 192.890625 15.734375 193.125 15.929688 193.355469 16.128906 C 194.078125 16.761719 194.761719 17.445312 195.410156 18.15625 C 197.367188 20.316406 198.917969 22.824219 199.871094 25.582031 L 199.871094 25.75 C 196.132812 21.253906 191.378906 17.421875 186.53125 14.332031 C 184.890625 13.289062 183.378906 15.894531 185.011719 16.933594 C 190.625 20.511719 196.199219 25.179688 199.871094 30.765625 L 199.871094 30.894531 C 193.375 24.71875 183.753906 21.457031 174.929688 21.554688 C 172.992188 21.578125 172.988281 24.589844 174.929688 24.566406 C 183.90625 24.464844 193.605469 28.101562 199.558594 34.929688 C 192.730469 31 184.980469 28.566406 177.039062 29.058594 C 173.523438 29.277344 169.695312 29.925781 166.539062 31.597656 C 164.828125 32.503906 166.347656 35.105469 168.0625 34.199219 C 168.265625 34.089844 168.480469 33.996094 168.695312 33.902344 C 168.566406 33.957031 168.945312 33.796875 169.238281 33.6875 C 169.601562 33.550781 169.96875 33.425781 170.335938 33.308594 C 172.507812 32.617188 174.765625 32.210938 177.039062 32.070312 C 184.617188 31.601562 191.886719 33.941406 198.359375 37.71875 C 190.816406 35.820312 182.839844 35.914062 175.484375 38.671875 C 171.925781 40.007812 168.238281 41.855469 165.433594 44.480469 C 164.015625 45.804688 166.148438 47.933594 167.5625 46.609375 C 168.355469 45.867188 168.726562 45.632812 169.691406 44.980469 C 171.742188 43.597656 173.964844 42.445312 176.285156 41.578125 C 183.574219 38.84375 191.335938 38.875 198.742188 40.941406 C 188.328125 40.835938 177.328125 43.636719 169.820312 51.167969 C 169.242188 51.746094 168.695312 52.355469 168.210938 53.015625 C 167.0625 54.578125 169.671875 56.082031 170.808594 54.535156 C 170.53125 54.914062 170.820312 54.523438 171.058594 54.25 C 171.488281 53.753906 171.949219 53.285156 172.429688 52.832031 C 174.027344 51.316406 175.820312 50.03125 177.722656 48.925781 C 184.425781 45.035156 192.203125 43.734375 199.871094 43.96875 L 199.871094 44.960938 C 193.351562 44.6875 187.261719 47.914062 182.265625 51.890625 C 179.21875 54.316406 176.378906 57.125 174.03125 60.242188 C 172.890625 61.757812 175.363281 63.226562 176.550781 61.855469 C 176.511719 61.910156 176.492188 61.9375 176.578125 61.832031 C 176.722656 61.652344 176.867188 61.46875 177.011719 61.289062 C 177.480469 60.722656 177.960938 60.167969 178.453125 59.625 C 180.125 57.773438 181.929688 56.039062 183.859375 54.457031 C 188.378906 50.742188 193.914062 47.761719 199.871094 47.972656 L 199.871094 48.46875 C 191.78125 50.027344 185.035156 56.761719 181.257812 63.855469 C 180.347656 65.566406 182.945312 67.089844 183.859375 65.375 C 187.078125 59.328125 192.910156 52.976562 199.871094 51.492188 L 199.871094 54.9375 C 198.339844 55.4375 197.226562 56.878906 197.226562 58.570312 L 197.226562 59.929688 C 196.726562 59.710938 196.234375 59.484375 195.742188 59.253906 C 194.640625 58.730469 193.304688 58.945312 192.652344 60.0625 C 192.078125 61.042969 192.355469 62.628906 193.460938 63.152344 C 194.691406 63.734375 195.949219 64.300781 197.226562 64.796875 L 197.226562 91.300781 C 197.226562 93.402344 198.949219 95.121094 201.050781 95.121094 L 201.425781 95.121094 C 203.527344 95.121094 205.25 93.402344 205.25 91.300781 L 205.25 64.945312 C 206.660156 64.414062 208.042969 63.789062 209.394531 63.152344 C 210.496094 62.632812 210.78125 61.050781 210.203125 60.0625 C 209.542969 58.933594 208.21875 58.730469 207.113281 59.253906 C 206.5 59.542969 205.878906 59.824219 205.25 60.089844 L 205.25 58.570312 C 205.25 56.996094 204.28125 55.632812 202.914062 55.050781 L 202.914062 51.476562 C 209.90625 52.933594 215.765625 59.308594 219 65.375 C 219.910156 67.085938 222.507812 65.566406 221.597656 63.855469 C 217.808594 56.742188 211.035156 49.988281 202.914062 48.457031 L 202.914062 47.976562 C 208.898438 47.738281 214.457031 50.726562 219 54.457031 C 220.898438 56.015625 222.675781 57.722656 224.324219 59.539062 C 224.84375 60.109375 225.351562 60.691406 225.84375 61.289062 C 225.980469 61.460938 226.117188 61.632812 226.253906 61.800781 C 226.371094 61.945312 226.339844 61.90625 226.289062 61.839844 C 227.472656 63.234375 229.96875 61.761719 228.824219 60.242188 Z M 240.6875 46.371094 C 240.027344 56.179688 235.695312 65.324219 228.65625 72.160156 C 226.566406 74.1875 229.761719 77.378906 231.851562 75.351562 C 239.765625 67.664062 244.464844 57.367188 245.207031 46.371094 C 245.402344 43.46875 240.882812 43.480469 240.6875 46.371094 Z M 162.234375 45.949219 C 162.070312 43.0625 157.550781 43.042969 157.71875 45.949219 C 158.378906 57.5 163.4375 68.347656 171.976562 76.175781 C 174.117188 78.136719 177.320312 74.949219 175.171875 72.980469 C 167.519531 65.96875 162.828125 56.335938 162.234375 45.949219 Z M 157.804688 40.339844 C 158.636719 30.753906 162.445312 21.722656 168.863281 14.53125 C 180.34375 1.664062 199.054688 -3.292969 215.402344 2.238281 C 231.71875 7.757812 243.25 22.472656 245.070312 39.535156 C 245.199219 40.753906 243.933594 41.792969 242.8125 41.792969 C 241.5 41.792969 240.683594 40.746094 240.554688 39.535156 C 239.652344 31.089844 235.921875 23.027344 230.09375 16.855469 C 219.425781 5.558594 202.816406 1.589844 188.175781 6.789062 C 173.90625 11.859375 163.632812 25.285156 162.320312 40.339844 C 162.070312 43.21875 157.550781 43.234375 157.804688 40.339844 " fill-opacity="1" fill-rule="nonzero"/></g><g fill="#000000" fill-opacity="1"><g transform="translate(16.103862, 136.655336)"><g><path d="M 2.03125 0 L 8.484375 0 L 8.484375 -0.515625 C 7.25 -0.875 6.890625 -1.796875 6.890625 -5.0625 L 6.890625 -14.9375 L 11.625 -14.9375 C 16.171875 -14.9375 17.28125 -13.984375 17.796875 -12.1875 L 18.28125 -12.1875 L 18.28125 -18.234375 L 17.796875 -18.234375 C 17.28125 -16.484375 16.171875 -15.53125 11.625 -15.578125 L 6.890625 -15.578125 L 6.890625 -27.25 L 13.9375 -27.25 C 17.6875 -27.25 19.359375 -26.25 20.703125 -23.578125 L 21.15625 -23.703125 L 20.796875 -27.875 L 2.03125 -27.875 L 2.03125 -27.359375 C 3.21875 -27 3.625 -26.09375 3.625 -22.828125 L 3.625 -5.0625 C 3.625 -1.796875 3.21875 -0.875 2.03125 -0.515625 Z M 2.03125 0 "/></g></g></g><g fill="#000000" fill-opacity="1"><g transform="translate(40.753928, 136.655336)"><g><path d="M 16.25 0.390625 C 22.9375 0.390625 30.34375 -3.984375 30.34375 -13.828125 C 30.34375 -23.578125 22.984375 -28.203125 16.25 -28.203125 C 7.8125 -28.203125 2.078125 -22.140625 2.078125 -13.984375 C 2.078125 -4.109375 9.484375 0.390625 16.25 0.390625 Z M 5.25 -16.296875 C 5.015625 -22.78125 8.5625 -27.28125 14.609375 -27.28125 C 21.75 -27.28125 26.96875 -19.515625 27.25 -11.1875 C 27.4375 -5.21875 24.296875 -0.59375 17.921875 -0.59375 C 10.796875 -0.59375 5.53125 -8.28125 5.25 -16.296875 Z M 5.25 -16.296875 "/></g></g></g><g fill="#000000" fill-opacity="1"><g transform="translate(75.518885, 136.655336)"><g><path d="M 22.296875 0.28125 C 23.09375 0.28125 24.140625 0.203125 24.734375 0 L 24.734375 -0.484375 C 24.53125 -0.4375 24.328125 -0.4375 24.09375 -0.4375 C 22.734375 -0.4375 21.9375 -1.75 20.03125 -6.53125 C 18.125 -11.4375 17.359375 -13.859375 12.46875 -14.5 C 17.640625 -15.09375 20.359375 -17.921875 20.359375 -21.671875 C 20.359375 -25.21875 17.96875 -27.875 9.875 -27.875 L 2.03125 -27.875 L 2.03125 -27.359375 C 3.265625 -27 3.625 -26.09375 3.625 -22.828125 L 3.625 -5.0625 C 3.625 -1.796875 3.265625 -0.875 2.03125 -0.515625 L 2.03125 0 L 8.484375 0 L 8.484375 -0.515625 C 7.25 -0.875 6.890625 -1.796875 6.890625 -5.0625 L 6.890625 -14.375 L 9.4375 -14.375 C 14.21875 -14.375 14.53125 -11.59375 16.84375 -6.09375 C 18.59375 -1.953125 19.234375 0.28125 22.296875 0.28125 Z M 6.890625 -14.96875 L 6.890625 -27.203125 C 7.53125 -27.25 8.171875 -27.28125 8.765625 -27.28125 C 14.65625 -27.28125 16.96875 -24.296875 16.96875 -20.75 C 16.96875 -17.359375 14.8125 -14.96875 10.234375 -14.96875 Z M 6.890625 -14.96875 "/></g></g></g><g fill="#000000" fill-opacity="1"><g transform="translate(102.279529, 136.655336)"><g><path d="M 2.03125 0 L 21.671875 0 L 21.984375 -5.296875 L 21.546875 -5.375 C 20.109375 -1.671875 17.6875 -0.59375 13.859375 -0.59375 L 8.6875 -0.59375 C 7.53125 -0.59375 6.890625 -1.234375 6.890625 -2.390625 L 6.890625 -14.609375 L 11.984375 -14.609375 C 16.53125 -14.609375 17.6875 -13.703125 18.15625 -11.90625 L 18.640625 -11.90625 L 18.640625 -17.921875 L 18.15625 -17.921875 C 17.6875 -16.125 16.53125 -15.21875 11.984375 -15.21875 L 6.890625 -15.21875 L 6.890625 -27.28125 L 12.75 -27.28125 C 16.8125 -27.28125 19.15625 -26.09375 20.546875 -22.578125 L 20.984375 -22.703125 L 20.546875 -27.875 L 2.03125 -27.875 L 2.03125 -27.359375 C 3.21875 -27 3.625 -26.09375 3.625 -22.828125 L 3.625 -5.0625 C 3.625 -1.796875 3.21875 -0.875 2.03125 -0.515625 Z M 2.03125 0 "/></g></g></g><g fill="#000000" fill-opacity="1"><g transform="translate(128.124273, 136.655336)"><g><path d="M 11.34375 0.390625 C 16.046875 0.390625 20.671875 -2.625 20.671875 -7.609375 C 20.671875 -12.109375 16.53125 -13.859375 12.109375 -15.609375 C 8.71875 -17 4.625 -18.515625 4.625 -22.265625 C 4.625 -25.65625 7.375 -27.515625 10.59375 -27.515625 C 15.140625 -27.515625 17.921875 -25.046875 19.390625 -21.59375 L 19.796875 -21.703125 L 19.640625 -26.328125 C 18.078125 -27.15625 15.5 -28.15625 11.875 -28.15625 C 6.015625 -28.15625 2.15625 -25.21875 2.15625 -20.546875 C 2.15625 -16.328125 5.140625 -14.65625 9.84375 -12.78125 C 13.1875 -11.4375 18.078125 -9.59375 18.078125 -5.609375 C 18.078125 -2.390625 15.328125 -0.3125 12.140625 -0.3125 C 6.609375 -0.3125 3.578125 -3.859375 2.03125 -8.046875 L 1.59375 -7.96875 L 1.796875 -2.421875 C 3.671875 -1.078125 7.171875 0.390625 11.34375 0.390625 Z M 11.34375 0.390625 "/></g></g></g><g fill="#000000" fill-opacity="1"><g transform="translate(152.455753, 136.655336)"><g><path d="M 7.921875 0 L 14.421875 0 L 14.421875 -0.515625 C 13.1875 -0.875 12.828125 -1.796875 12.828125 -5.0625 L 12.828125 -27.25 L 14.703125 -27.25 C 18.28125 -27.25 19.828125 -26.28125 21.1875 -23.421875 L 21.625 -23.5 L 21.390625 -27.875 L 0.875 -27.875 L 0.640625 -23.5 L 1.078125 -23.421875 C 2.421875 -26.28125 3.984375 -27.25 7.5625 -27.25 L 9.515625 -27.25 L 9.515625 -5.0625 C 9.515625 -1.796875 9.15625 -0.875 7.921875 -0.515625 Z M 7.921875 0 "/></g></g></g><g fill="#000000" fill-opacity="1"><g transform="translate(177.14564, 136.655336)"><g/></g></g><g fill="#000000" fill-opacity="1"><g transform="translate(187.897685, 136.655336)"><g><path d="M 2.03125 0 L 8.484375 0 L 8.484375 -0.515625 C 7.25 -0.875 6.890625 -1.796875 6.890625 -5.0625 L 6.890625 -11.03125 L 9.71875 -11.03125 C 17.125 -11.03125 20.984375 -14.734375 20.984375 -20.03125 C 20.984375 -23.890625 18.359375 -27.875 10.109375 -27.875 L 2.03125 -27.875 L 2.03125 -27.359375 C 3.21875 -27 3.625 -26.09375 3.625 -22.828125 L 3.625 -5.0625 C 3.625 -1.796875 3.21875 -0.875 2.03125 -0.515625 Z M 6.890625 -11.625 L 6.890625 -27.203125 C 7.375 -27.25 8 -27.28125 8.5625 -27.28125 C 14.96875 -27.28125 17.484375 -23.375 17.484375 -19.125 C 17.484375 -14.421875 14.734375 -11.625 9.640625 -11.625 Z M 6.890625 -11.625 "/></g></g></g><g fill="#000000" fill-opacity="1"><g transform="translate(212.269, 136.655336)"><g><path d="M -0.671875 0 L 3.828125 0 L 3.828125 -0.515625 C 2.46875 -0.796875 2.3125 -2.109375 3.34375 -4.703125 L 5.703125 -10.515625 L 16.921875 -10.515625 L 19.359375 -4.65625 C 20.625 -1.671875 20.953125 -0.875 19.71875 -0.515625 L 19.71875 0 L 25.890625 0 L 25.890625 -0.515625 C 25.046875 -0.875 24.09375 -1.671875 22.859375 -4.65625 L 13.0625 -28.203125 L 10.078125 -26.84375 L 10.4375 -26 C 10.75 -25.375 10.796875 -24.859375 10.515625 -24.140625 L 2.671875 -4.703125 C 1.4375 -1.671875 0.4375 -0.875 -0.671875 -0.515625 Z M 5.9375 -11.109375 L 11.234375 -24.21875 L 16.6875 -11.109375 Z M 5.9375 -11.109375 "/></g></g></g><g fill="#000000" fill-opacity="1"><g transform="translate(240.1845, 136.655336)"><g><path d="M 22.296875 0.28125 C 23.09375 0.28125 24.140625 0.203125 24.734375 0 L 24.734375 -0.484375 C 24.53125 -0.4375 24.328125 -0.4375 24.09375 -0.4375 C 22.734375 -0.4375 21.9375 -1.75 20.03125 -6.53125 C 18.125 -11.4375 17.359375 -13.859375 12.46875 -14.5 C 17.640625 -15.09375 20.359375 -17.921875 20.359375 -21.671875 C 20.359375 -25.21875 17.96875 -27.875 9.875 -27.875 L 2.03125 -27.875 L 2.03125 -27.359375 C 3.265625 -27 3.625 -26.09375 3.625 -22.828125 L 3.625 -5.0625 C 3.625 -1.796875 3.265625 -0.875 2.03125 -0.515625 L 2.03125 0 L 8.484375 0 L 8.484375 -0.515625 C 7.25 -0.875 6.890625 -1.796875 6.890625 -5.0625 L 6.890625 -14.375 L 9.4375 -14.375 C 14.21875 -14.375 14.53125 -11.59375 16.84375 -6.09375 C 18.59375 -1.953125 19.234375 0.28125 22.296875 0.28125 Z M 6.890625 -14.96875 L 6.890625 -27.203125 C 7.53125 -27.25 8.171875 -27.28125 8.765625 -27.28125 C 14.65625 -27.28125 16.96875 -24.296875 16.96875 -20.75 C 16.96875 -17.359375 14.8125 -14.96875 10.234375 -14.96875 Z M 6.890625 -14.96875 "/></g></g></g><g fill="#000000" fill-opacity="1"><g transform="translate(266.945145, 136.655336)"><g><path d="M -0.671875 0 L 3.828125 0 L 3.828125 -0.515625 C 2.46875 -0.796875 2.3125 -2.109375 3.34375 -4.703125 L 5.703125 -10.515625 L 16.921875 -10.515625 L 19.359375 -4.65625 C 20.625 -1.671875 20.953125 -0.875 19.71875 -0.515625 L 19.71875 0 L 25.890625 0 L 25.890625 -0.515625 C 25.046875 -0.875 24.09375 -1.671875 22.859375 -4.65625 L 13.0625 -28.203125 L 10.078125 -26.84375 L 10.4375 -26 C 10.75 -25.375 10.796875 -24.859375 10.515625 -24.140625 L 2.671875 -4.703125 C 1.4375 -1.671875 0.4375 -0.875 -0.671875 -0.515625 Z M 5.9375 -11.109375 L 11.234375 -24.21875 L 16.6875 -11.109375 Z M 5.9375 -11.109375 "/></g></g></g><g fill="#000000" fill-opacity="1"><g transform="translate(294.860646, 136.655336)"><g><path d="M 2.03125 0 L 12.46875 0 C 21.234375 0 26.890625 -6.046875 26.84375 -14.453125 C 26.796875 -20.90625 22.5 -27.875 11.546875 -27.875 L 2.03125 -27.875 L 2.03125 -27.359375 C 3.21875 -27 3.625 -26.09375 3.625 -22.828125 L 3.625 -5.0625 C 3.625 -1.796875 3.21875 -0.875 2.03125 -0.515625 Z M 6.890625 -3.5 L 6.890625 -27.28125 L 9.59375 -27.28125 C 18.484375 -27.28125 23.21875 -20.828125 23.21875 -12.859375 C 23.21875 -4.546875 19.359375 -0.59375 12.390625 -0.59375 L 9.484375 -0.59375 C 7.28125 -0.59375 6.890625 -1.640625 6.890625 -3.5 Z M 6.890625 -3.5 "/></g></g></g><g fill="#000000" fill-opacity="1"><g transform="translate(326.121212, 136.655336)"><g><path d="M 2.03125 0 L 8.484375 0 L 8.484375 -0.515625 C 7.25 -0.875 6.890625 -1.796875 6.890625 -5.0625 L 6.890625 -22.828125 C 6.890625 -26.09375 7.25 -27 8.484375 -27.359375 L 8.484375 -27.875 L 2.03125 -27.875 L 2.03125 -27.359375 C 3.21875 -27 3.625 -26.09375 3.625 -22.828125 L 3.625 -5.0625 C 3.625 -1.796875 3.21875 -0.875 2.03125 -0.515625 Z M 2.03125 0 "/></g></g></g><g fill="#000000" fill-opacity="1"><g transform="translate(339.023667, 136.655336)"><g><path d="M 11.34375 0.390625 C 16.046875 0.390625 20.671875 -2.625 20.671875 -7.609375 C 20.671875 -12.109375 16.53125 -13.859375 12.109375 -15.609375 C 8.71875 -17 4.625 -18.515625 4.625 -22.265625 C 4.625 -25.65625 7.375 -27.515625 10.59375 -27.515625 C 15.140625 -27.515625 17.921875 -25.046875 19.390625 -21.59375 L 19.796875 -21.703125 L 19.640625 -26.328125 C 18.078125 -27.15625 15.5 -28.15625 11.875 -28.15625 C 6.015625 -28.15625 2.15625 -25.21875 2.15625 -20.546875 C 2.15625 -16.328125 5.140625 -14.65625 9.84375 -12.78125 C 13.1875 -11.4375 18.078125 -9.59375 18.078125 -5.609375 C 18.078125 -2.390625 15.328125 -0.3125 12.140625 -0.3125 C 6.609375 -0.3125 3.578125 -3.859375 2.03125 -8.046875 L 1.59375 -7.96875 L 1.796875 -2.421875 C 3.671875 -1.078125 7.171875 0.390625 11.34375 0.390625 Z M 11.34375 0.390625 "/></g></g></g><g fill="#000000" fill-opacity="1"><g transform="translate(363.355147, 136.655336)"><g><path d="M 2.03125 0 L 21.671875 0 L 21.984375 -5.296875 L 21.546875 -5.375 C 20.109375 -1.671875 17.6875 -0.59375 13.859375 -0.59375 L 8.6875 -0.59375 C 7.53125 -0.59375 6.890625 -1.234375 6.890625 -2.390625 L 6.890625 -14.609375 L 11.984375 -14.609375 C 16.53125 -14.609375 17.6875 -13.703125 18.15625 -11.90625 L 18.640625 -11.90625 L 18.640625 -17.921875 L 18.15625 -17.921875 C 17.6875 -16.125 16.53125 -15.21875 11.984375 -15.21875 L 6.890625 -15.21875 L 6.890625 -27.28125 L 12.75 -27.28125 C 16.8125 -27.28125 19.15625 -26.09375 20.546875 -22.578125 L 20.984375 -22.703125 L 20.546875 -27.875 L 2.03125 -27.875 L 2.03125 -27.359375 C 3.21875 -27 3.625 -26.09375 3.625 -22.828125 L 3.625 -5.0625 C 3.625 -1.796875 3.21875 -0.875 2.03125 -0.515625 Z M 2.03125 0 "/></g></g></g><g fill="#000000" fill-opacity="1"><g transform="translate(156.485224, 172.062148)"><g><path d="M 8.171875 0 L 5.046875 -5.28125 L 2.71875 -5.28125 L 2.71875 0 L 1.453125 0 L 1.453125 -12.640625 L 5.25 -12.640625 C 6.65625 -12.640625 7.722656 -12.300781 8.453125 -11.625 C 9.179688 -10.957031 9.546875 -10.070312 9.546875 -8.96875 C 9.546875 -8.050781 9.285156 -7.269531 8.765625 -6.625 C 8.242188 -5.976562 7.46875 -5.5625 6.4375 -5.375 L 9.703125 0 Z M 2.71875 -6.3125 L 5.265625 -6.3125 C 6.253906 -6.3125 7 -6.550781 7.5 -7.03125 C 8 -7.519531 8.25 -8.164062 8.25 -8.96875 C 8.25 -9.800781 8.003906 -10.441406 7.515625 -10.890625 C 7.035156 -11.347656 6.28125 -11.578125 5.25 -11.578125 L 2.71875 -11.578125 Z M 2.71875 -6.3125 "/></g></g></g><g fill="#000000" fill-opacity="1"><g transform="translate(169.642339, 172.062148)"><g><path d="M 2.71875 -11.609375 L 2.71875 -6.890625 L 7.515625 -6.890625 L 7.515625 -5.84375 L 2.71875 -5.84375 L 2.71875 -1.046875 L 8.046875 -1.046875 L 8.046875 0 L 1.453125 0 L 1.453125 -12.671875 L 8.046875 -12.671875 L 8.046875 -11.609375 Z M 2.71875 -11.609375 "/></g></g></g><g fill="#000000" fill-opacity="1"><g transform="translate(181.27931, 172.062148)"><g><path d="M 5.28125 0.125 C 4.445312 0.125 3.710938 -0.015625 3.078125 -0.296875 C 2.453125 -0.585938 1.957031 -0.992188 1.59375 -1.515625 C 1.226562 -2.035156 1.035156 -2.613281 1.015625 -3.25 L 2.359375 -3.25 C 2.410156 -2.632812 2.675781 -2.09375 3.15625 -1.625 C 3.644531 -1.164062 4.351562 -0.9375 5.28125 -0.9375 C 6.132812 -0.9375 6.8125 -1.15625 7.3125 -1.59375 C 7.8125 -2.039062 8.0625 -2.601562 8.0625 -3.28125 C 8.0625 -3.820312 7.921875 -4.253906 7.640625 -4.578125 C 7.367188 -4.910156 7.023438 -5.160156 6.609375 -5.328125 C 6.203125 -5.492188 5.640625 -5.671875 4.921875 -5.859375 C 4.078125 -6.085938 3.40625 -6.3125 2.90625 -6.53125 C 2.414062 -6.75 1.992188 -7.085938 1.640625 -7.546875 C 1.296875 -8.003906 1.125 -8.625 1.125 -9.40625 C 1.125 -10.0625 1.289062 -10.644531 1.625 -11.15625 C 1.96875 -11.664062 2.445312 -12.066406 3.0625 -12.359375 C 3.675781 -12.648438 4.378906 -12.796875 5.171875 -12.796875 C 6.347656 -12.796875 7.289062 -12.507812 8 -11.9375 C 8.71875 -11.363281 9.132812 -10.625 9.25 -9.71875 L 7.875 -9.71875 C 7.789062 -10.238281 7.503906 -10.695312 7.015625 -11.09375 C 6.535156 -11.5 5.882812 -11.703125 5.0625 -11.703125 C 4.300781 -11.703125 3.664062 -11.5 3.15625 -11.09375 C 2.65625 -10.695312 2.40625 -10.144531 2.40625 -9.4375 C 2.40625 -8.914062 2.539062 -8.488281 2.8125 -8.15625 C 3.09375 -7.832031 3.441406 -7.585938 3.859375 -7.421875 C 4.273438 -7.253906 4.84375 -7.070312 5.5625 -6.875 C 6.375 -6.644531 7.035156 -6.414062 7.546875 -6.1875 C 8.054688 -5.96875 8.484375 -5.628906 8.828125 -5.171875 C 9.179688 -4.710938 9.359375 -4.097656 9.359375 -3.328125 C 9.359375 -2.734375 9.195312 -2.171875 8.875 -1.640625 C 8.5625 -1.109375 8.097656 -0.679688 7.484375 -0.359375 C 6.867188 -0.0351562 6.132812 0.125 5.28125 0.125 Z M 5.28125 0.125 "/></g></g></g><g fill="#000000" fill-opacity="1"><g transform="translate(194.164975, 172.062148)"><g><path d="M 7.125 0.125 C 5.957031 0.125 4.894531 -0.144531 3.9375 -0.6875 C 2.988281 -1.238281 2.238281 -2.003906 1.6875 -2.984375 C 1.144531 -3.972656 0.875 -5.085938 0.875 -6.328125 C 0.875 -7.578125 1.144531 -8.691406 1.6875 -9.671875 C 2.238281 -10.648438 2.988281 -11.414062 3.9375 -11.96875 C 4.894531 -12.519531 5.957031 -12.796875 7.125 -12.796875 C 8.3125 -12.796875 9.378906 -12.519531 10.328125 -11.96875 C 11.285156 -11.414062 12.035156 -10.648438 12.578125 -9.671875 C 13.117188 -8.691406 13.390625 -7.578125 13.390625 -6.328125 C 13.390625 -5.085938 13.117188 -3.972656 12.578125 -2.984375 C 12.035156 -2.003906 11.285156 -1.238281 10.328125 -0.6875 C 9.378906 -0.144531 8.3125 0.125 7.125 0.125 Z M 7.125 -0.984375 C 8.070312 -0.984375 8.914062 -1.195312 9.65625 -1.625 C 10.40625 -2.0625 11 -2.6875 11.4375 -3.5 C 11.875 -4.3125 12.09375 -5.253906 12.09375 -6.328125 C 12.09375 -7.398438 11.875 -8.34375 11.4375 -9.15625 C 11 -9.96875 10.40625 -10.585938 9.65625 -11.015625 C 8.914062 -11.453125 8.070312 -11.671875 7.125 -11.671875 C 6.1875 -11.671875 5.34375 -11.453125 4.59375 -11.015625 C 3.84375 -10.585938 3.25 -9.96875 2.8125 -9.15625 C 2.382812 -8.34375 2.171875 -7.398438 2.171875 -6.328125 C 2.171875 -5.253906 2.382812 -4.3125 2.8125 -3.5 C 3.25 -2.6875 3.84375 -2.0625 4.59375 -1.625 C 5.34375 -1.195312 6.1875 -0.984375 7.125 -0.984375 Z M 7.125 -0.984375 "/></g></g></g><g fill="#000000" fill-opacity="1"><g transform="translate(210.959589, 172.062148)"><g><path d="M 8.171875 0 L 5.046875 -5.28125 L 2.71875 -5.28125 L 2.71875 0 L 1.453125 0 L 1.453125 -12.640625 L 5.25 -12.640625 C 6.65625 -12.640625 7.722656 -12.300781 8.453125 -11.625 C 9.179688 -10.957031 9.546875 -10.070312 9.546875 -8.96875 C 9.546875 -8.050781 9.285156 -7.269531 8.765625 -6.625 C 8.242188 -5.976562 7.46875 -5.5625 6.4375 -5.375 L 9.703125 0 Z M 2.71875 -6.3125 L 5.265625 -6.3125 C 6.253906 -6.3125 7 -6.550781 7.5 -7.03125 C 8 -7.519531 8.25 -8.164062 8.25 -8.96875 C 8.25 -9.800781 8.003906 -10.441406 7.515625 -10.890625 C 7.035156 -11.347656 6.28125 -11.578125 5.25 -11.578125 L 2.71875 -11.578125 Z M 2.71875 -6.3125 "/></g></g></g><g fill="#000000" fill-opacity="1"><g transform="translate(224.116706, 172.062148)"><g><path d="M 8.84375 -12.640625 L 8.84375 -11.59375 L 5.34375 -11.59375 L 5.34375 0 L 4.078125 0 L 4.078125 -11.59375 L 0.546875 -11.59375 L 0.546875 -12.640625 Z M 8.84375 -12.640625 "/></g></g></g><g fill="#000000" fill-opacity="1"><g transform="translate(236.061328, 172.062148)"><g><path d="M 5.28125 0.125 C 4.445312 0.125 3.710938 -0.015625 3.078125 -0.296875 C 2.453125 -0.585938 1.957031 -0.992188 1.59375 -1.515625 C 1.226562 -2.035156 1.035156 -2.613281 1.015625 -3.25 L 2.359375 -3.25 C 2.410156 -2.632812 2.675781 -2.09375 3.15625 -1.625 C 3.644531 -1.164062 4.351562 -0.9375 5.28125 -0.9375 C 6.132812 -0.9375 6.8125 -1.15625 7.3125 -1.59375 C 7.8125 -2.039062 8.0625 -2.601562 8.0625 -3.28125 C 8.0625 -3.820312 7.921875 -4.253906 7.640625 -4.578125 C 7.367188 -4.910156 7.023438 -5.160156 6.609375 -5.328125 C 6.203125 -5.492188 5.640625 -5.671875 4.921875 -5.859375 C 4.078125 -6.085938 3.40625 -6.3125 2.90625 -6.53125 C 2.414062 -6.75 1.992188 -7.085938 1.640625 -7.546875 C 1.296875 -8.003906 1.125 -8.625 1.125 -9.40625 C 1.125 -10.0625 1.289062 -10.644531 1.625 -11.15625 C 1.96875 -11.664062 2.445312 -12.066406 3.0625 -12.359375 C 3.675781 -12.648438 4.378906 -12.796875 5.171875 -12.796875 C 6.347656 -12.796875 7.289062 -12.507812 8 -11.9375 C 8.71875 -11.363281 9.132812 -10.625 9.25 -9.71875 L 7.875 -9.71875 C 7.789062 -10.238281 7.503906 -10.695312 7.015625 -11.09375 C 6.535156 -11.5 5.882812 -11.703125 5.0625 -11.703125 C 4.300781 -11.703125 3.664062 -11.5 3.15625 -11.09375 C 2.65625 -10.695312 2.40625 -10.144531 2.40625 -9.4375 C 2.40625 -8.914062 2.539062 -8.488281 2.8125 -8.15625 C 3.09375 -7.832031 3.441406 -7.585938 3.859375 -7.421875 C 4.273438 -7.253906 4.84375 -7.070312 5.5625 -6.875 C 6.375 -6.644531 7.035156 -6.414062 7.546875 -6.1875 C 8.054688 -5.96875 8.484375 -5.628906 8.828125 -5.171875 C 9.179688 -4.710938 9.359375 -4.097656 9.359375 -3.328125 C 9.359375 -2.734375 9.195312 -2.171875 8.875 -1.640625 C 8.5625 -1.109375 8.097656 -0.679688 7.484375 -0.359375 C 6.867188 -0.0351562 6.132812 0.125 5.28125 0.125 Z M 5.28125 0.125 "/></g></g></g></svg>