<svg width="110" height="52" viewBox="0 0 110 52" fill="none" xmlns="http://www.w3.org/2000/svg">
<path d="M41.328 48.88H41.388C41.444 48.88 41.496 48.86 41.544 48.82C41.592 48.772 41.632 48.716 41.664 48.652C41.704 48.58 41.732 48.508 41.748 48.436C41.764 48.356 41.772 48.284 41.772 48.22V44.956H37.932V48.22C37.932 48.284 37.94 48.356 37.956 48.436C37.972 48.508 37.996 48.576 38.028 48.64C38.06 48.704 38.096 48.76 38.136 48.808C38.184 48.856 38.24 48.88 38.304 48.88H38.364V49H36.684V48.88H36.744C36.8 48.88 36.852 48.86 36.9 48.82C36.948 48.772 36.988 48.716 37.02 48.652C37.06 48.58 37.088 48.508 37.104 48.436C37.12 48.356 37.128 48.284 37.128 48.22V41.824C37.128 41.768 37.12 41.704 37.104 41.632C37.088 41.56 37.064 41.492 37.032 41.428C37 41.364 36.96 41.312 36.912 41.272C36.864 41.224 36.808 41.2 36.744 41.2H36.684V41.08H38.364V41.2H38.304C38.24 41.2 38.184 41.224 38.136 41.272C38.088 41.312 38.048 41.364 38.016 41.428C37.992 41.492 37.972 41.56 37.956 41.632C37.94 41.704 37.932 41.768 37.932 41.824V44.536H41.772V41.824C41.772 41.768 41.764 41.704 41.748 41.632C41.732 41.56 41.708 41.492 41.676 41.428C41.644 41.364 41.604 41.312 41.556 41.272C41.508 41.224 41.452 41.2 41.388 41.2H41.328V41.08H43.008V41.2H42.948C42.884 41.2 42.828 41.224 42.78 41.272C42.732 41.312 42.692 41.364 42.66 41.428C42.636 41.492 42.616 41.56 42.6 41.632C42.584 41.704 42.576 41.768 42.576 41.824V48.22C42.576 48.284 42.584 48.356 42.6 48.436C42.624 48.508 42.652 48.576 42.684 48.64C42.716 48.704 42.752 48.76 42.792 48.808C42.84 48.856 42.892 48.88 42.948 48.88H43.008V49H41.328V48.88ZM48.0488 40.96C48.6728 40.96 49.2328 41.072 49.7288 41.296C50.2248 41.512 50.6448 41.808 50.9888 42.184C51.3408 42.552 51.6088 42.984 51.7928 43.48C51.9848 43.968 52.0808 44.48 52.0808 45.016C52.0808 45.616 51.9688 46.168 51.7448 46.672C51.5288 47.176 51.2288 47.608 50.8448 47.968C50.4608 48.328 50.0128 48.612 49.5008 48.82C48.9968 49.02 48.4568 49.12 47.8808 49.12C47.2648 49.12 46.7088 49.008 46.2128 48.784C45.7248 48.56 45.3088 48.264 44.9648 47.896C44.6288 47.528 44.3688 47.104 44.1848 46.624C44.0008 46.144 43.9088 45.644 43.9088 45.124C43.9088 44.612 44.0008 44.108 44.1848 43.612C44.3688 43.108 44.6368 42.66 44.9888 42.268C45.3488 41.876 45.7848 41.56 46.2968 41.32C46.8088 41.08 47.3928 40.96 48.0488 40.96ZM48.0368 48.7C48.5728 48.676 49.0408 48.556 49.4408 48.34C49.8488 48.116 50.1888 47.836 50.4608 47.5C50.7328 47.156 50.9328 46.78 51.0608 46.372C51.1968 45.964 51.2648 45.56 51.2648 45.16C51.2648 44.72 51.1848 44.276 51.0248 43.828C50.8648 43.38 50.6368 42.976 50.3408 42.616C50.0448 42.248 49.6888 41.952 49.2728 41.728C48.8648 41.496 48.4048 41.38 47.8928 41.38C47.3968 41.38 46.9528 41.492 46.5608 41.716C46.1688 41.932 45.8328 42.212 45.5528 42.556C45.2808 42.9 45.0728 43.284 44.9288 43.708C44.7848 44.132 44.7128 44.548 44.7128 44.956C44.7128 45.396 44.7968 45.84 44.9648 46.288C45.1328 46.728 45.3648 47.128 45.6608 47.488C45.9568 47.848 46.3048 48.14 46.7048 48.364C47.1128 48.588 47.5568 48.7 48.0368 48.7ZM55.5135 48.88H55.5735V49H53.8695V48.88H53.9295C53.9935 48.88 54.0495 48.856 54.0975 48.808C54.1455 48.76 54.1855 48.704 54.2175 48.64C54.2575 48.576 54.2855 48.508 54.3015 48.436C54.3175 48.356 54.3255 48.284 54.3255 48.22V41.524H52.9335C52.8055 41.524 52.6935 41.552 52.5975 41.608C52.5015 41.664 52.4215 41.736 52.3575 41.824C52.2935 41.904 52.2455 41.996 52.2135 42.1C52.1815 42.196 52.1655 42.292 52.1655 42.388H52.0455V41.08H57.4335V42.388H57.3135C57.3135 42.292 57.2975 42.196 57.2655 42.1C57.2335 41.996 57.1855 41.904 57.1215 41.824C57.0575 41.736 56.9775 41.664 56.8815 41.608C56.7855 41.552 56.6735 41.524 56.5455 41.524H55.1295V48.22C55.1295 48.284 55.1375 48.356 55.1535 48.436C55.1695 48.508 55.1935 48.576 55.2255 48.64C55.2655 48.704 55.3055 48.76 55.3455 48.808C55.3935 48.856 55.4495 48.88 55.5135 48.88ZM58.0908 48.88H58.1508C58.2148 48.88 58.2708 48.86 58.3188 48.82C58.3668 48.772 58.4068 48.716 58.4388 48.652C58.4788 48.588 58.5068 48.52 58.5228 48.448C58.5468 48.376 58.5588 48.308 58.5588 48.244V41.824C58.5588 41.768 58.5468 41.704 58.5228 41.632C58.5068 41.56 58.4788 41.492 58.4388 41.428C58.4068 41.364 58.3668 41.312 58.3188 41.272C58.2708 41.224 58.2148 41.2 58.1508 41.2H58.0908V41.08H62.7108V42.196H62.5908C62.5748 42.012 62.5028 41.852 62.3748 41.716C62.2468 41.572 62.0468 41.5 61.7748 41.5H59.3628V44.536H61.3548C61.5388 44.536 61.6908 44.48 61.8108 44.368C61.9388 44.256 62.0028 44.124 62.0028 43.972H62.1228V45.472H62.0028C62.0028 45.328 61.9428 45.204 61.8228 45.1C61.7028 44.996 61.5468 44.944 61.3548 44.944H59.3628V48.58H61.9908C62.1428 48.58 62.2748 48.544 62.3868 48.472C62.4988 48.4 62.5908 48.316 62.6628 48.22C62.7428 48.116 62.7988 48.008 62.8308 47.896C62.8708 47.776 62.8908 47.676 62.8908 47.596H63.0108V49H58.0908V48.88ZM63.915 48.88H63.975C64.039 48.88 64.095 48.86 64.143 48.82C64.191 48.772 64.231 48.716 64.263 48.652C64.303 48.588 64.331 48.52 64.347 48.448C64.371 48.376 64.383 48.308 64.383 48.244V41.824C64.383 41.768 64.371 41.704 64.347 41.632C64.331 41.56 64.303 41.492 64.263 41.428C64.231 41.364 64.191 41.312 64.143 41.272C64.095 41.224 64.039 41.2 63.975 41.2H63.915V41.08H65.643V41.2H65.583C65.519 41.2 65.463 41.224 65.415 41.272C65.367 41.312 65.327 41.364 65.295 41.428C65.263 41.492 65.235 41.56 65.211 41.632C65.195 41.704 65.187 41.768 65.187 41.824V48.556H67.815C67.967 48.556 68.099 48.52 68.211 48.448C68.323 48.376 68.415 48.288 68.487 48.184C68.567 48.072 68.623 47.956 68.655 47.836C68.695 47.708 68.715 47.592 68.715 47.488H68.835V49H63.915V48.88Z" fill="#252525"/>
<path d="M70.8 33.6H71C71.2133 33.6 71.4 33.5333 71.56 33.4C71.72 33.24 71.8533 33.0533 71.96 32.84C72.0933 32.6267 72.1867 32.4 72.24 32.16C72.32 31.92 72.36 31.6933 72.36 31.48V10.08C72.36 9.89333 72.32 9.68 72.24 9.44C72.1867 9.2 72.0933 8.97333 71.96 8.76C71.8533 8.54666 71.72 8.37333 71.56 8.24C71.4 8.08 71.2133 8 71 8H70.8V7.6H76.56V8H76.36C76.1467 8 75.96 8.08 75.8 8.24C75.64 8.37333 75.5067 8.54666 75.4 8.76C75.2933 8.97333 75.2 9.2 75.12 9.44C75.0667 9.68 75.04 9.89333 75.04 10.08V32.52H83.8C84.3067 32.52 84.7467 32.4 85.12 32.16C85.4933 31.92 85.8 31.6267 86.04 31.28C86.3067 30.9067 86.4933 30.52 86.6 30.12C86.7333 29.6933 86.8 29.3067 86.8 28.96H87.2V34H70.8V33.6ZM89.3938 33.6H89.5938C89.8071 33.6 89.9938 33.5333 90.1538 33.4C90.3138 33.24 90.4471 33.0533 90.5538 32.84C90.6871 32.6267 90.7804 32.4 90.8338 32.16C90.9138 31.92 90.9538 31.6933 90.9538 31.48V10.08C90.9538 9.89333 90.9138 9.68 90.8338 9.44C90.7804 9.2 90.6871 8.97333 90.5538 8.76C90.4471 8.54666 90.3138 8.37333 90.1538 8.24C89.9938 8.08 89.8071 8 89.5938 8H89.3938V7.6H104.794V11.32H104.394C104.34 10.7067 104.1 10.1733 103.674 9.72C103.247 9.24 102.58 9 101.674 9H93.6338V19.12H100.274C100.887 19.12 101.394 18.9333 101.794 18.56C102.22 18.1867 102.434 17.7467 102.434 17.24H102.834V22.24H102.434C102.434 21.76 102.234 21.3467 101.834 21C101.434 20.6533 100.914 20.48 100.274 20.48H93.6338V32.6H102.394C102.9 32.6 103.34 32.48 103.714 32.24C104.087 32 104.394 31.72 104.634 31.4C104.9 31.0533 105.087 30.6933 105.194 30.32C105.327 29.92 105.394 29.5867 105.394 29.32H105.794V34H89.3938V33.6Z" fill="#252525"/>
<path d="M19 26.92C19 28.2533 18.7333 29.4 18.2 30.36C17.6667 31.2933 16.9733 32.0533 16.12 32.64C15.2933 33.2267 14.3467 33.6533 13.28 33.92C12.24 34.1867 11.2 34.32 10.16 34.32C9.09333 34.32 8.17333 34.2133 7.4 34C6.62667 33.7867 5.92 33.5867 5.28 33.4C4.85333 33.2667 4.46667 33.16 4.12 33.08C3.77333 32.9733 3.42667 32.92 3.08 32.92V28.36H3.48C3.48 29.3733 3.73333 30.1867 4.24 30.8C4.77333 31.3867 5.38667 31.84 6.08 32.16C6.77333 32.48 7.46667 32.6933 8.16 32.8C8.85333 32.88 9.36 32.92 9.68 32.92C10.8267 32.92 11.8133 32.76 12.64 32.44C13.4667 32.0933 14.1467 31.6533 14.68 31.12C15.2133 30.56 15.6 29.9467 15.84 29.28C16.1067 28.6133 16.24 27.9333 16.24 27.24C16.24 26.36 16.0533 25.6267 15.68 25.04C15.3067 24.4267 14.8133 23.8933 14.2 23.44C13.6133 22.9867 12.9333 22.6 12.16 22.28C11.3867 21.96 10.6 21.64 9.8 21.32C8.89333 20.9733 8 20.6133 7.12 20.24C6.24 19.8667 5.45333 19.4133 4.76 18.88C4.06667 18.32 3.50667 17.6667 3.08 16.92C2.65333 16.1467 2.44 15.2 2.44 14.08C2.44 12.9067 2.66667 11.8933 3.12 11.04C3.57333 10.16 4.17333 9.44 4.92 8.88C5.69333 8.32 6.56 7.90666 7.52 7.64C8.50667 7.34667 9.50667 7.2 10.52 7.2C11.2133 7.2 11.8667 7.25333 12.48 7.36C13.0933 7.44 13.68 7.54666 14.24 7.68C14.6933 7.78666 15.1333 7.88 15.56 7.96C15.9867 8.01333 16.4 8.04 16.8 8.04V12.16H16.4C16.3467 10.7733 15.8 9.84 14.76 9.36C13.72 8.85333 12.28 8.6 10.44 8.6C9.37333 8.6 8.49333 8.78666 7.8 9.16C7.13333 9.50666 6.6 9.94667 6.2 10.48C5.8 10.9867 5.52 11.5467 5.36 12.16C5.22667 12.7467 5.16 13.2667 5.16 13.72C5.16 14.4667 5.32 15.1067 5.64 15.64C5.98667 16.1733 6.44 16.64 7 17.04C7.56 17.44 8.2 17.8 8.92 18.12C9.66667 18.44 10.44 18.7467 11.24 19.04C12.1467 19.3867 13.0667 19.76 14 20.16C14.9333 20.56 15.76 21.0533 16.48 21.64C17.2267 22.2267 17.8267 22.9467 18.28 23.8C18.76 24.6533 19 25.6933 19 26.92ZM38.3694 33.6H38.5694C38.756 33.6 38.9294 33.5333 39.0894 33.4C39.2494 33.24 39.3827 33.0533 39.4894 32.84C39.6227 32.6 39.716 32.36 39.7694 32.12C39.8227 31.8533 39.8494 31.6133 39.8494 31.4V20.52H27.0494V31.4C27.0494 31.6133 27.076 31.8533 27.1294 32.12C27.1827 32.36 27.2627 32.5867 27.3694 32.8C27.476 33.0133 27.596 33.2 27.7294 33.36C27.8894 33.52 28.076 33.6 28.2894 33.6H28.4894V34H22.8894V33.6H23.0894C23.276 33.6 23.4494 33.5333 23.6094 33.4C23.7694 33.24 23.9027 33.0533 24.0094 32.84C24.1427 32.6 24.236 32.36 24.2894 32.12C24.3427 31.8533 24.3694 31.6133 24.3694 31.4V10.08C24.3694 9.89333 24.3427 9.68 24.2894 9.44C24.236 9.2 24.156 8.97333 24.0494 8.76C23.9427 8.54666 23.8094 8.37333 23.6494 8.24C23.4894 8.08 23.3027 8 23.0894 8H22.8894V7.6H28.4894V8H28.2894C28.076 8 27.8894 8.08 27.7294 8.24C27.5694 8.37333 27.436 8.54666 27.3294 8.76C27.2494 8.97333 27.1827 9.2 27.1294 9.44C27.076 9.68 27.0494 9.89333 27.0494 10.08V19.12H39.8494V10.08C39.8494 9.89333 39.8227 9.68 39.7694 9.44C39.716 9.2 39.636 8.97333 39.5294 8.76C39.4227 8.54666 39.2894 8.37333 39.1294 8.24C38.9694 8.08 38.7827 8 38.5694 8H38.3694V7.6H43.9694V8H43.7694C43.556 8 43.3694 8.08 43.2094 8.24C43.0494 8.37333 42.916 8.54666 42.8094 8.76C42.7294 8.97333 42.6627 9.2 42.6094 9.44C42.556 9.68 42.5294 9.89333 42.5294 10.08V31.4C42.5294 31.6133 42.556 31.8533 42.6094 32.12C42.6894 32.36 42.7827 32.5867 42.8894 32.8C42.996 33.0133 43.116 33.2 43.2494 33.36C43.4094 33.52 43.5827 33.6 43.7694 33.6H43.9694V34H38.3694V33.6Z" fill="#252525"/>
<path d="M49 25.0936L57 7L65.5 25.0936" stroke="#252525" stroke-width="2"/>
<path d="M49 34.0936L57 16L65.5 34.0936" stroke="#252525" stroke-width="2"/>
</svg>
