<svg width="27" height="16" viewBox="0 0 27 16" fill="none" xmlns="http://www.w3.org/2000/svg">
<path fill-rule="evenodd" clip-rule="evenodd" d="M25.4548 1C25.4548 1.55228 25.0071 2 24.4548 2H2C1.44772 2 1 1.55228 1 1V1C1 0.447715 1.44771 0 2 0H16.2477H24.4548C25.0071 0 25.4548 0.447715 25.4548 1V1ZM25.4548 8.02157C25.4548 8.57386 25.0071 9.02157 24.4548 9.02157H2C1.44772 9.02157 1 8.57386 1 8.02157V8.02157C1 7.46929 1.44771 7.02157 2 7.02157H24.4548C25.0071 7.02157 25.4548 7.46929 25.4548 8.02157V8.02157ZM25.4548 14.9502C25.4548 15.5024 25.0071 15.9502 24.4548 15.9502H2C1.44772 15.9502 1 15.5024 1 14.9502V14.9502C1 14.3979 1.44771 13.9502 2 13.9502H24.4548C25.0071 13.9502 25.4548 14.3979 25.4548 14.9502V14.9502Z" fill="white"/>
</svg>
